<?xml version="1.0" standalone="no"?>
<!DOCTYPE svg PUBLIC "-//W3C//DTD SVG 20010904//EN"
 "http://www.w3.org/TR/2001/REC-SVG-20010904/DTD/svg10.dtd">
<svg version="1.0" xmlns="http://www.w3.org/2000/svg"
 width="300.000000pt" height="76.000000pt" viewBox="0 0 300.000000 76.000000"
 preserveAspectRatio="xMidYMid meet">
<metadata>
Created by potrace 1.10, written by Peter Selinger 2001-2011
</metadata>
<g transform="translate(0.000000,76.000000) scale(0.100000,-0.100000)"
fill="#000000" stroke="none">
<path d="M360 746 c0 -2 57 -37 128 -77 188 -107 172 -80 172 -289 0 -156 -2
-179 -17 -193 -16 -13 -118 -75 -233 -139 -19 -11 -39 -25 -45 -30 -20 -21
254 132 288 160 15 13 17 36 17 202 0 166 -2 189 -17 202 -10 8 -70 44 -133
80 -143 81 -160 90 -160 84z"/>
<path d="M150 660 c-74 -43 -136 -83 -138 -90 -2 -6 16 2 40 18 23 16 89 55
146 87 94 53 114 66 95 64 -5 0 -69 -36 -143 -79z"/>
<path d="M188 628 l-138 -80 0 -168 c0 -161 1 -170 21 -180 11 -7 22 -10 24
-8 2 2 31 79 64 172 34 93 65 176 70 184 9 15 91 28 91 14 0 -4 -38 -110 -85
-237 -61 -167 -81 -231 -72 -237 6 -4 14 -4 18 0 3 4 43 111 89 237 46 127 87
232 91 235 13 9 84 5 82 -5 -1 -5 -41 -113 -87 -240 -47 -126 -84 -230 -83
-230 1 -1 14 -9 29 -18 34 -21 36 -21 75 3 l32 19 -26 61 -27 61 19 55 c10 30
22 57 26 59 7 5 69 -160 69 -183 0 -8 8 -12 18 -10 22 5 21 13 -28 143 l-42
110 18 50 c20 58 31 74 38 54 35 -106 101 -286 106 -292 5 -5 17 -4 29 2 20
11 21 19 21 180 l0 168 -144 82 c-80 44 -148 81 -153 80 -4 0 -70 -37 -145
-81z m267 -19 c60 -34 115 -66 122 -73 11 -10 19 -146 14 -241 -2 -28 -3 -27
-25 21 -13 27 -30 70 -37 95 -7 24 -23 58 -36 76 -13 17 -23 43 -23 56 0 44
-25 55 -138 55 -88 0 -106 -3 -120 -19 -10 -10 -39 -77 -66 -148 -27 -72 -52
-128 -57 -125 -5 3 -9 49 -9 102 0 111 9 131 68 160 47 24 131 71 157 88 11 8
24 14 29 14 6 0 60 -28 121 -61z m-95 -490 c0 -22 -29 -33 -36 -15 -3 8 0 24
6 37 10 17 14 19 21 8 5 -8 9 -21 9 -30z"/>
<path d="M932 453 c-20 -30 -92 -161 -92 -168 0 -3 11 -5 24 -5 16 0 27 7 31
20 6 17 15 20 74 20 59 0 71 -3 83 -21 8 -13 21 -20 35 -17 20 3 18 8 -27 88
-27 47 -53 91 -59 98 -19 20 -48 14 -69 -15z m85 -99 c-3 -3 -25 -4 -50 -2
l-45 3 25 43 26 43 24 -41 c14 -23 23 -44 20 -46z"/>
<path d="M1150 380 c0 -93 1 -100 20 -100 16 0 20 7 20 30 0 29 1 30 48 30 42
0 51 -4 70 -30 15 -20 31 -30 49 -30 l27 0 -29 30 -29 30 22 20 c28 26 29 73
2 100 -17 17 -33 20 -110 20 l-90 0 0 -100z m175 30 c0 -24 -3 -25 -67 -28
l-68 -3 0 31 0 31 68 -3 c64 -3 67 -4 67 -28z"/>
<path d="M1437 473 c-4 -3 -7 -48 -7 -100 l0 -93 99 0 c77 0 103 4 115 16 18
18 21 55 5 71 -8 8 -8 17 0 31 15 29 14 39 -9 62 -17 17 -33 20 -108 20 -49 0
-92 -3 -95 -7z m179 -44 c11 -19 -10 -28 -76 -30 -60 -3 -65 -1 -68 19 -3 21
0 22 67 22 39 0 73 -5 77 -11z m-2 -75 c11 -28 -3 -34 -75 -34 -67 0 -69 1
-69 25 0 24 2 25 69 25 54 0 70 -3 75 -16z"/>
<path d="M1726 383 c2 -91 3 -98 23 -101 20 -3 21 1 21 97 0 98 -1 101 -22
101 -22 0 -23 -3 -22 -97z"/>
<path d="M1830 460 c0 -17 7 -20 51 -20 l50 0 -2 -77 c-2 -73 -1 -78 19 -81
21 -3 22 0 22 77 l0 81 45 0 c38 0 45 3 45 20 0 19 -7 20 -115 20 -108 0 -115
-1 -115 -20z"/>
<path d="M2120 380 c0 -93 1 -100 20 -100 16 0 20 7 20 30 0 29 1 30 48 30 42
0 51 -4 70 -30 15 -20 31 -30 48 -30 l25 0 -25 33 c-25 33 -25 33 -6 50 26 22
26 71 0 97 -17 17 -33 20 -110 20 l-90 0 0 -100z m175 30 c0 -24 -3 -25 -67
-28 l-68 -3 0 31 0 31 68 -3 c64 -3 67 -4 67 -28z"/>
<path d="M2400 396 c0 -107 5 -111 117 -111 110 0 123 13 123 121 0 72 -1 74
-25 74 -23 0 -24 -3 -27 -77 l-3 -78 -49 -3 c-92 -6 -96 -2 -96 83 0 68 -2 75
-20 75 -18 0 -20 -7 -20 -84z"/>
<path d="M2707 473 c-4 -3 -7 -48 -7 -100 0 -91 1 -93 23 -93 23 0 24 2 19 80
-2 44 -1 80 4 80 5 0 22 -32 38 -70 47 -115 88 -118 132 -12 15 37 31 71 36
76 4 6 8 -27 8 -72 0 -76 2 -82 20 -82 20 0 21 5 18 98 l-3 97 -33 3 c-32 3
-34 2 -69 -77 -20 -45 -39 -81 -42 -81 -4 0 -17 27 -30 60 -33 82 -47 100 -80
100 -15 0 -31 -3 -34 -7z"/>
<path d="M10 190 c0 -5 16 -17 35 -29 23 -13 35 -16 35 -8 -1 13 -70 50 -70
37z"/>
</g>
</svg>
