<?xml version="1.0" standalone="no"?>
<!DOCTYPE svg PUBLIC "-//W3C//DTD SVG 20010904//EN"
 "http://www.w3.org/TR/2001/REC-SVG-20010904/DTD/svg10.dtd">
<svg version="1.0" xmlns="http://www.w3.org/2000/svg"
 width="300.000000pt" height="156.000000pt" viewBox="0 0 300.000000 156.000000"
 preserveAspectRatio="xMidYMid meet">
<metadata>
Created by potrace 1.10, written by Peter Selinger 2001-2011
</metadata>
<g transform="translate(0.000000,156.000000) scale(0.100000,-0.100000)"
fill="#000000" stroke="none">
<path d="M545 1013 l-230 -233 164 -165 c90 -91 165 -165 166 -165 0 0 0 41
-2 92 l-2 92 -73 73 -72 73 107 108 c59 60 107 106 107 103 0 -3 0 -140 0
-304 l-1 -299 35 -38 34 -37 233 233 234 234 -168 167 -167 168 0 -96 0 -96
74 -70 74 -71 -104 -106 c-57 -58 -108 -106 -112 -106 -4 0 -6 138 -4 308 l3
308 -33 29 -33 30 -230 -232z m252 165 c4 -7 10 -144 13 -305 6 -379 6 -378
163 -224 98 95 113 121 93 159 -8 15 -33 45 -56 67 -23 22 -48 52 -56 67 -17
34 -18 68 -1 68 14 0 243 -227 237 -234 -26 -27 -312 -314 -355 -356 l-56 -55
-20 24 c-18 23 -19 39 -18 297 2 240 0 276 -15 299 -9 14 -20 25 -24 25 -16 0
-60 -38 -139 -119 -105 -107 -106 -114 -18 -207 56 -60 65 -74 65 -107 0 -33
-2 -36 -17 -28 -28 15 -223 219 -223 233 0 16 391 408 407 408 6 0 15 -6 20
-12z"/>
<path d="M2550 1247 c0 -5 131 -137 135 -137 3 0 5 32 5 70 l0 70 -70 0 c-38
0 -70 -1 -70 -3z"/>
<path d="M2067 1066 c-127 -47 -196 -148 -197 -287 0 -65 4 -85 31 -138 54
-108 162 -168 283 -159 34 3 76 13 94 22 28 14 32 15 32 1 0 -12 14 -15 70
-15 l70 0 0 290 0 290 -70 0 c-56 0 -70 -3 -70 -15 0 -14 -4 -13 -32 1 -44 23
-162 28 -211 10z m190 -40 c22 -8 46 -10 54 -6 13 8 59 13 87 11 9 -1 12 -58
12 -250 0 -280 3 -270 -76 -250 -34 9 -55 9 -85 0 -86 -26 -191 -8 -249 41
-29 25 -71 86 -81 119 -25 82 -5 201 43 259 21 25 81 67 113 78 43 15 136 14
182 -2z"/>
<path d="M2115 972 c-40 -13 -81 -45 -105 -79 -36 -52 -40 -153 -8 -207 58
-99 158 -132 255 -83 74 38 83 57 83 181 l0 105 -33 34 c-48 47 -131 68 -192
49z m159 -65 l36 -28 0 -98 c0 -88 -2 -100 -22 -119 -48 -44 -145 -56 -200
-24 -68 40 -96 140 -59 216 32 65 71 88 147 84 49 -3 69 -10 98 -31z"/>
<path d="M2500 1071 c0 -2 11 -17 25 -33 l26 -31 -3 -258 -3 -259 73 0 72 0 0
289 0 290 -95 3 c-52 2 -95 1 -95 -1z m145 -291 l0 -245 -30 0 -30 0 -3 248
-2 248 32 -3 33 -3 0 -245z"/>
<path d="M1382 1005 l43 -66 108 3 c59 2 107 2 107 0 0 -3 -147 -219 -242
-354 l-68 -98 291 0 291 0 -18 28 c-9 15 -29 44 -42 65 l-25 38 -116 -1 c-64
-1 -119 -1 -123 -1 -4 1 62 102 147 226 l154 225 -275 0 -274 0 42 -65z m418
11 c-4 -12 -60 -99 -124 -194 -64 -95 -116 -181 -116 -192 0 -33 49 -50 149
-50 69 0 93 -4 106 -16 34 -34 14 -39 -176 -42 -102 -2 -195 1 -207 5 -22 9
-18 16 102 196 69 104 126 197 126 207 0 35 -38 50 -126 50 -69 0 -84 3 -100
21 -15 17 -16 22 -4 29 8 5 96 8 196 8 182 -1 182 -1 174 -22z"/>
</g>
</svg>
