<?xml version="1.0" standalone="no"?>
<!DOCTYPE svg PUBLIC "-//W3C//DTD SVG 20010904//EN"
 "http://www.w3.org/TR/2001/REC-SVG-20010904/DTD/svg10.dtd">
<svg version="1.0" xmlns="http://www.w3.org/2000/svg"
 width="300.000000pt" height="95.000000pt" viewBox="0 0 300.000000 95.000000"
 preserveAspectRatio="xMidYMid meet">
<metadata>
Created by potrace 1.10, written by Peter Selinger 2001-2011
</metadata>
<g transform="translate(0.000000,95.000000) scale(0.100000,-0.100000)"
fill="#000000" stroke="none">
<path d="M325 923 c-122 -44 -224 -136 -277 -250 -29 -61 -32 -77 -34 -178 -2
-120 5 -165 42 -238 36 -72 81 -123 153 -172 91 -61 153 -77 288 -73 97 3 115
7 175 35 153 72 250 213 272 394 l7 56 -79 6 c-98 6 -150 28 -222 94 -122 112
-216 126 -375 57 l-40 -17 47 -12 c72 -19 128 -59 128 -91 0 -2 -8 -4 -18 -4
-28 0 -134 -56 -178 -94 l-39 -33 45 -7 c148 -23 240 -85 240 -161 0 -68 -69
-135 -140 -135 -45 0 -124 46 -165 96 -112 137 -135 305 -61 460 87 183 287
278 487 230 134 -31 250 -108 305 -202 29 -50 38 -57 24 -18 -32 83 -140 191
-240 238 -59 28 -75 31 -180 34 -90 2 -126 -1 -165 -15z m175 -283 c20 -5 73
-41 118 -80 58 -49 98 -74 134 -85 61 -18 78 -19 78 -4 0 6 17 9 43 7 38 -3
42 -6 45 -32 2 -17 0 -26 -6 -22 -6 4 -18 -19 -27 -51 -37 -130 -122 -229
-241 -285 -57 -26 -82 -32 -165 -36 -70 -3 -99 -1 -99 7 0 6 7 11 15 11 22 0
86 61 101 97 43 103 -21 205 -155 249 l-54 17 44 23 c89 46 160 41 303 -23 93
-41 179 -49 231 -20 l30 16 -33 1 c-18 0 -31 3 -29 8 3 4 -23 7 -57 8 -49 1
-76 8 -136 37 -41 20 -96 40 -122 43 -43 6 -51 11 -69 44 -12 21 -32 44 -45
51 -13 7 -24 16 -24 21 0 11 77 10 120 -2z"/>
<path d="M1140 700 c0 -116 2 -140 15 -140 12 0 15 22 17 118 l3 117 25 -72
c13 -40 27 -73 30 -73 3 0 16 30 30 68 l25 67 3 -112 c2 -91 5 -113 17 -113
13 0 15 24 15 141 0 138 0 140 -22 137 -16 -2 -27 -18 -44 -63 -25 -66 -20
-68 -55 28 -10 28 -18 37 -36 37 -23 0 -23 -1 -23 -140z"/>
<path d="M1446 715 c-21 -70 -40 -133 -43 -141 -3 -9 2 -14 15 -14 15 0 22 10
29 38 8 36 10 37 60 40 l51 3 9 -38 c7 -29 14 -39 32 -41 15 -2 21 0 17 7 -4
6 -24 68 -45 138 -35 117 -40 128 -63 131 -24 3 -27 -3 -62 -123z m85 14 l16
-59 -38 0 c-22 0 -39 2 -39 5 0 19 34 124 39 119 3 -3 13 -32 22 -65z"/>
<path d="M1695 700 c0 -129 1 -140 18 -140 17 0 18 9 15 115 -1 63 -1 115 2
115 3 0 25 -52 49 -115 39 -102 46 -115 67 -115 l24 0 0 140 c0 118 -2 140
-15 140 -12 0 -15 -20 -15 -117 l-1 -118 -46 118 c-42 108 -48 117 -72 117
l-26 0 0 -140z"/>
<path d="M1950 825 c0 -11 12 -15 45 -15 l45 0 0 -125 c0 -118 1 -125 20 -125
19 0 20 7 20 125 l0 125 45 0 c33 0 45 4 45 15 0 12 -19 15 -110 15 -91 0
-110 -3 -110 -15z"/>
<path d="M2273 700 c-37 -128 -39 -140 -22 -140 12 0 21 10 25 28 11 51 12 52
63 52 48 0 49 0 58 -37 6 -28 15 -39 31 -41 21 -3 21 -3 7 38 -8 22 -28 85
-45 140 -27 88 -34 100 -53 100 -20 0 -27 -14 -64 -140z m88 29 l16 -59 -38 0
c-22 0 -39 2 -39 5 0 19 34 124 39 119 3 -3 13 -32 22 -65z"/>
<path d="M1289 363 c0 -5 0 -59 1 -120 1 -62 -1 -113 -3 -113 -2 0 -23 52 -47
115 -42 108 -46 115 -72 115 l-28 0 0 -140 c0 -127 2 -140 18 -140 15 0 17 11
14 117 -2 65 0 115 4 111 4 -5 26 -56 49 -115 38 -96 45 -108 69 -111 l26 -3
0 145 c0 123 -2 146 -15 146 -8 0 -15 -3 -16 -7z"/>
<path d="M1959 366 c-2 -2 1 -67 6 -143 l10 -138 27 -3 c25 -3 26 -1 38 70 17
109 22 111 40 18 15 -79 18 -85 42 -88 l26 -3 7 103 c12 172 12 183 -5 183
-12 0 -16 -21 -20 -112 -3 -61 -8 -114 -11 -118 -4 -3 -12 30 -20 75 -11 72
-15 80 -35 80 -20 0 -24 -8 -34 -57 -21 -110 -24 -110 -32 2 -4 60 -10 115
-13 122 -4 13 -18 17 -26 9z"/>
<path d="M2291 356 c-37 -20 -50 -55 -51 -129 0 -103 30 -147 100 -147 22 0
41 9 61 29 28 28 29 34 29 116 0 82 -1 88 -29 116 -32 32 -70 37 -110 15z m89
-36 c16 -16 20 -33 20 -95 0 -62 -4 -79 -20 -95 -27 -27 -56 -25 -87 6 -23 23
-25 31 -21 96 3 59 8 73 27 89 30 24 56 24 81 -1z"/>
<path d="M1420 220 l0 -140 90 0 c73 0 90 3 90 15 0 12 -14 15 -70 15 l-70 0
0 50 0 50 65 0 c51 0 65 3 65 15 0 12 -14 15 -65 15 l-65 0 0 45 0 45 70 0
c56 0 70 3 70 15 0 12 -17 15 -90 15 l-90 0 0 -140z"/>
<path d="M1670 345 c0 -11 12 -15 50 -15 l50 0 0 -125 c0 -104 2 -125 15 -125
13 0 15 21 15 125 l0 125 50 0 c38 0 50 4 50 15 0 12 -19 15 -115 15 -96 0
-115 -3 -115 -15z"/>
<path d="M2530 220 c0 -136 1 -140 21 -140 20 0 21 4 16 60 -5 58 -4 60 18 60
19 0 31 -13 56 -60 21 -40 38 -60 50 -60 25 0 24 4 -11 62 -34 54 -37 68 -16
68 22 0 46 40 46 77 0 55 -28 73 -110 73 l-70 0 0 -140z m142 85 c8 -19 8 -31
0 -50 -10 -22 -18 -25 -60 -25 l-48 0 0 50 0 50 48 0 c42 0 50 -3 60 -25z"/>
<path d="M2805 220 c0 -127 2 -140 18 -140 13 0 17 9 17 40 0 37 23 90 39 90
3 0 22 -29 41 -65 28 -52 40 -65 58 -65 l24 0 -30 53 c-16 28 -38 66 -48 83
l-18 32 42 50 c48 56 50 62 23 62 -12 0 -39 -27 -73 -70 l-53 -70 -3 70 c-2
58 -6 70 -20 70 -15 0 -17 -15 -17 -140z"/>
</g>
</svg>
