<?xml version="1.0" standalone="no"?>
<!DOCTYPE svg PUBLIC "-//W3C//DTD SVG 20010904//EN"
 "http://www.w3.org/TR/2001/REC-SVG-20010904/DTD/svg10.dtd">
<svg version="1.0" xmlns="http://www.w3.org/2000/svg"
 width="300.000000pt" height="158.000000pt" viewBox="0 0 300.000000 158.000000"
 preserveAspectRatio="xMidYMid meet">
<metadata>
Created by potrace 1.10, written by Peter Selinger 2001-2011
</metadata>
<g transform="translate(0.000000,158.000000) scale(0.100000,-0.100000)"
fill="#000000" stroke="none">
<path d="M1313 1336 c-89 -50 -164 -94 -167 -97 -4 -3 31 -16 76 -28 46 -12
109 -32 140 -45 l57 -23 6 41 c10 66 25 137 42 189 8 27 13 50 12 52 -2 1 -77
-38 -166 -89z m134 29 c-4 -8 -11 -42 -18 -77 -16 -84 -25 -113 -35 -112 -15
2 -189 56 -193 61 -7 5 33 32 133 90 94 54 122 64 113 38z"/>
<path d="M1495 1378 c-23 -79 -47 -204 -43 -228 2 -14 24 -33 66 -56 34 -19
62 -31 62 -27 0 5 -24 22 -52 39 -63 36 -67 50 -43 165 19 95 32 128 51 125
17 -3 251 -131 284 -156 14 -11 21 -24 17 -33 -5 -15 -82 -63 -191 -121 -28
-15 -51 -28 -53 -30 -2 -2 12 -13 31 -25 44 -28 51 -24 143 73 71 74 109 123
102 130 -8 7 -326 186 -342 192 -12 4 -19 -6 -32 -48z"/>
<path d="M1110 1006 l0 -205 53 6 c63 7 238 50 247 60 4 5 4 49 1 100 l-6 92
-120 69 c-66 38 -132 72 -147 76 l-28 6 0 -204z m96 131 c53 -22 129 -70 153
-95 33 -33 41 -114 16 -142 -10 -11 -26 -20 -36 -20 -10 0 -20 -4 -23 -9 -3
-5 -23 -11 -43 -14 -21 -3 -53 -8 -72 -12 -23 -5 -36 -3 -42 7 -5 7 -9 77 -9
156 0 154 0 154 56 129z"/>
<path d="M1832 1126 c-29 -35 -73 -81 -98 -101 l-45 -38 38 -30 c21 -18 66
-58 101 -91 l62 -59 0 191 c0 106 -1 192 -3 192 -2 0 -27 -29 -55 -64z m28
-133 c0 -63 -4 -102 -9 -95 -4 8 -11 13 -15 12 -12 -3 -86 64 -86 77 0 18 32
53 47 53 7 0 13 7 13 16 0 9 9 18 20 21 11 3 20 9 20 14 0 5 2 9 5 9 3 0 5
-48 5 -107z"/>
<path d="M1340 1135 c30 -14 57 -30 58 -35 5 -13 22 -13 22 1 0 10 -65 42
-110 53 -14 4 0 -5 30 -19z"/>
<path d="M1440 1028 c0 -40 3 -90 6 -111 l7 -37 76 41 c108 58 111 61 66 92
-36 25 -39 25 -64 9 l-25 -17 32 -3 c17 -2 32 -9 32 -16 0 -11 -52 -56 -65
-56 -3 0 -5 17 -5 38 0 31 -5 41 -25 52 -49 26 -24 61 27 36 17 -9 33 -14 35
-12 5 4 -79 56 -90 56 -4 0 -7 -33 -7 -72z"/>
<path d="M1630 944 c-19 -14 -68 -41 -107 -62 -73 -37 -73 -37 -67 -72 9 -47
53 -222 57 -227 2 -2 80 39 173 92 92 52 173 97 179 99 9 3 -88 99 -170 168
l-30 26 -35 -24z m54 -30 c9 -3 16 -13 16 -21 0 -8 6 -13 13 -10 6 2 21 -9 33
-24 11 -16 23 -26 26 -24 3 3 13 -6 22 -20 15 -23 15 -27 2 -40 -8 -8 -22 -15
-32 -15 -10 0 -14 -3 -11 -7 11 -10 -180 -116 -215 -118 -24 -2 -38 50 -38
143 0 60 3 74 18 78 9 3 30 12 45 21 88 47 92 48 121 37z"/>
<path d="M1398 829 c-25 -14 -132 -40 -201 -48 l-62 -7 50 -26 c28 -14 106
-58 174 -97 104 -59 122 -67 116 -48 -24 78 -45 166 -45 187 0 36 -12 50 -32
39z m13 -86 c0 -21 2 -46 4 -56 3 -14 -1 -16 -18 -11 -45 14 -144 81 -126 85
2 0 12 2 22 4 11 2 21 6 25 9 3 3 25 6 49 6 43 0 43 0 44 -37z"/>
<path d="M280 290 l0 -140 35 0 35 0 -6 93 c-5 80 -4 90 9 75 7 -10 40 -51 73
-93 52 -66 63 -75 91 -75 l33 0 0 135 0 135 -33 0 -34 0 1 -90 c1 -49 2 -90 4
-90 2 0 10 15 18 32 l15 33 -4 -37 c-1 -21 1 -38 5 -38 4 0 8 -6 8 -14 0 -20
-50 -18 -52 3 0 9 -2 22 -2 28 -1 7 -30 51 -66 98 -58 76 -68 85 -97 85 l-33
0 0 -140z m80 60 l21 -21 -25 7 c-21 5 -25 2 -29 -23 -3 -23 -4 -21 -7 12 -2
39 -3 39 -10 10 l-8 -30 -1 37 c-1 31 2 36 18 33 11 -2 29 -13 41 -25z"/>
<path d="M676 420 c-79 -24 -116 -112 -82 -195 21 -49 68 -75 139 -75 115 0
171 51 164 148 -3 41 -10 59 -32 82 -43 45 -118 61 -189 40z m128 -71 c31 -24
36 -81 10 -117 -13 -18 -25 -22 -74 -22 -49 0 -61 4 -74 22 -26 36 -21 93 10
117 35 27 93 27 128 0z"/>
<path d="M2280 421 c-19 -5 -38 -34 -86 -131 -35 -69 -63 -128 -63 -132 -1 -5
15 -8 34 -8 21 0 35 5 36 13 0 6 20 52 43 102 l43 90 26 -54 c15 -30 27 -56
27 -58 0 -2 -17 -3 -38 -3 -32 0 -41 -5 -50 -25 l-12 -25 65 0 c55 0 65 -3 70
-20 5 -15 15 -20 40 -20 l34 0 -43 93 c-68 144 -90 187 -95 186 -4 -1 -17 -4
-31 -8z"/>
<path d="M940 406 c0 -8 -3 -21 -6 -30 -5 -14 7 -16 94 -16 l100 0 12 -30 c13
-32 8 -84 -11 -107 -7 -8 -34 -13 -74 -13 l-62 0 5 66 c4 66 4 67 -19 61 -13
-4 -30 -7 -36 -7 -10 0 -13 -25 -13 -91 l0 -91 111 4 c110 3 111 3 139 35 51
57 48 152 -6 207 -25 25 -32 26 -130 26 -83 0 -104 -3 -104 -14z"/>
<path d="M1250 285 l0 -135 120 0 c120 0 121 0 130 26 6 14 10 27 10 30 0 2
-45 4 -100 4 -100 0 -100 0 -100 25 0 25 1 25 85 25 l85 0 0 31 0 31 -85 -3
c-85 -4 -85 -4 -85 21 l0 25 90 -3 c89 -4 90 -4 100 23 5 14 10 28 10 31 0 2
-58 4 -130 4 l-130 0 0 -135z m65 -3 c-8 -2 -15 -10 -15 -18 0 -8 -5 -14 -11
-14 -6 0 -9 7 -6 15 4 8 2 17 -2 20 -5 3 -7 14 -4 25 5 19 6 19 29 -3 18 -17
20 -23 9 -25z"/>
<path d="M1556 398 c-3 -13 -6 -26 -6 -29 0 -3 41 -6 92 -5 107 1 128 -8 110
-48 -11 -24 -16 -26 -77 -26 -63 0 -65 1 -65 26 0 20 -4 25 -16 20 -9 -3 -22
-6 -30 -6 -11 0 -14 -19 -14 -90 l0 -90 30 0 c29 0 30 2 30 45 l0 45 44 0 c41
0 46 -3 73 -45 25 -41 32 -45 67 -45 38 0 38 0 22 22 -51 71 -49 64 -22 92 36
35 36 93 0 130 -25 25 -32 26 -129 26 -98 0 -103 -1 -109 -22z"/>
<path d="M1860 285 l0 -135 120 0 120 0 0 30 0 30 -90 0 c-89 0 -90 0 -90 25
0 24 2 25 73 25 69 0 74 2 85 25 7 14 12 29 12 32 0 3 -38 3 -85 1 l-85 -6 0
28 0 27 90 -5 90 -5 0 32 0 31 -120 0 -120 0 0 -135z"/>
<path d="M2470 285 l0 -135 119 0 c115 0 119 1 125 23 3 12 6 25 6 30 0 4 -43
7 -95 7 l-95 0 0 105 0 105 -30 0 -30 0 0 -135z"/>
</g>
</svg>
