<?xml version="1.0" standalone="no"?>
<!DOCTYPE svg PUBLIC "-//W3C//DTD SVG 20010904//EN"
 "http://www.w3.org/TR/2001/REC-SVG-20010904/DTD/svg10.dtd">
<svg version="1.0" xmlns="http://www.w3.org/2000/svg"
 width="300.000000pt" height="179.000000pt" viewBox="0 0 300.000000 179.000000"
 preserveAspectRatio="xMidYMid meet">
<metadata>
Created by potrace 1.10, written by Peter Selinger 2001-2011
</metadata>
<g transform="translate(0.000000,179.000000) scale(0.100000,-0.100000)"
fill="#000000" stroke="none">
<path d="M1374 1065 c-2 -11 -15 -72 -28 -135 -14 -63 -28 -123 -31 -132 -6
-15 -1 -18 34 -18 34 0 41 4 45 23 3 12 16 75 31 140 14 65 27 123 28 129 1 6
-15 11 -36 12 -30 1 -39 -3 -43 -19z"/>
<path d="M1715 1075 c-2 -5 -15 -68 -30 -140 -15 -71 -30 -136 -32 -142 -4 -9
7 -13 36 -13 32 0 41 4 41 18 1 16 1 16 11 0 10 -18 44 -23 74 -12 26 10 57
84 63 150 4 56 2 63 -17 74 -23 12 -61 5 -73 -14 -15 -23 -17 3 -4 42 9 23 14
42 13 43 -17 6 -80 1 -82 -6z m87 -155 c-7 -68 -52 -123 -52 -63 0 52 20 105
38 101 13 -3 16 -12 14 -38z"/>
<path d="M2360 1083 c0 -1 -13 -66 -30 -143 -16 -77 -30 -145 -30 -150 0 -15
70 -12 74 3 3 6 7 24 10 40 9 39 23 33 31 -13 7 -40 7 -40 51 -40 24 0 44 1
44 3 0 1 -11 31 -24 67 l-24 65 46 48 46 47 -46 0 c-42 0 -47 -3 -72 -40 -30
-46 -31 -50 -11 -50 11 0 15 -11 15 -36 0 -32 -1 -34 -16 -20 -19 20 -19 20
-49 0 -24 -16 -25 -16 -24 7 2 46 15 74 34 74 18 0 20 5 48 115 6 25 4 26 -33
25 -22 0 -40 -1 -40 -2z"/>
<path d="M600 1000 c-16 -16 -20 -17 -20 -5 0 10 -11 15 -35 15 -28 0 -36 -4
-40 -22 -3 -13 -18 -81 -33 -151 l-29 -128 41 3 c39 3 40 4 51 53 7 35 13 45
17 33 10 -26 62 -23 88 4 22 24 38 70 47 139 4 35 1 49 -12 62 -22 23 -51 21
-75 -3z m7 -92 c-7 -54 -29 -90 -46 -73 -7 7 -6 26 0 55 14 65 17 70 35 70 14
0 16 -8 11 -52z m-80 -92 c-10 -24 -27 -19 -23 7 3 12 5 24 5 27 1 2 6 -1 12
-7 7 -7 9 -19 6 -27z"/>
<path d="M783 1013 c-46 -9 -93 -101 -93 -183 0 -32 28 -50 76 -50 56 0 79 12
99 50 l16 30 -35 0 c-24 0 -38 -7 -49 -22 -19 -29 -41 -12 -32 24 6 22 11 24
63 24 l57 0 6 39 c9 52 -6 82 -43 89 -17 3 -33 5 -37 5 -3 -1 -16 -4 -28 -6z
m45 -65 c-3 -23 -48 -41 -48 -20 0 24 14 42 32 42 14 0 19 -6 16 -22z"/>
<path d="M973 1005 c-38 -16 -62 -59 -70 -126 -5 -40 -3 -49 10 -49 31 0 47
13 47 37 0 46 56 123 79 108 25 -15 3 -82 -38 -119 -25 -23 -19 -36 19 -36 38
0 76 46 84 103 8 54 0 76 -31 88 -33 12 -62 11 -100 -6z"/>
<path d="M1250 1013 c-8 -4 -21 -13 -28 -22 -12 -14 -13 -14 -8 2 4 14 -1 17
-32 17 l-38 0 -28 -127 c-16 -71 -31 -138 -34 -150 -4 -21 -1 -23 36 -23 l41
0 7 51 c5 38 9 47 16 35 13 -23 71 -21 92 3 23 25 46 104 46 157 0 53 -26 74
-70 57z m-5 -90 c-9 -49 -26 -85 -44 -91 -11 -4 -13 5 -7 47 9 69 15 81 38 81
18 0 19 -4 13 -37z m-87 -107 c-17 -33 -18 -32 -18 9 0 32 2 36 15 25 11 -9
12 -17 3 -34z"/>
<path d="M1514 1013 c-36 -7 -63 -46 -80 -116 -16 -62 -16 -68 0 -92 14 -21
24 -25 67 -25 43 0 55 5 80 29 16 16 29 36 29 43 0 22 -60 10 -82 -16 -14 -17
-19 -19 -27 -7 -5 8 -6 24 -1 35 6 18 15 21 63 20 l56 -1 6 38 c14 79 -23 109
-111 92z m46 -68 c0 -20 -5 -25 -25 -25 -27 0 -33 18 -13 38 20 20 38 14 38
-13z m-70 -27 c0 -19 -18 -43 -25 -36 -9 9 4 48 16 48 5 0 9 -6 9 -12z"/>
<path d="M1973 1013 c-12 -2 -34 -19 -49 -36 l-27 -32 34 -3 c22 -2 37 2 45
12 16 22 46 21 42 -1 -2 -12 -23 -24 -62 -36 -50 -16 -60 -24 -73 -55 -21 -49
-5 -82 38 -82 18 0 41 8 51 17 18 16 18 16 12 0 -5 -14 0 -17 35 -17 37 0 41
3 41 24 0 13 7 59 16 101 14 67 14 79 2 92 -16 15 -70 24 -105 16z m27 -141
c0 -21 -18 -42 -37 -42 -19 0 -16 37 5 49 25 15 32 13 32 -7z"/>
<path d="M2222 1004 c-12 -8 -22 -10 -22 -5 0 6 -17 11 -37 11 l-38 0 -18 -93
c-10 -51 -20 -103 -24 -115 -5 -20 -2 -22 34 -22 l40 0 13 73 c7 39 17 80 22
90 8 17 38 24 38 10 0 -9 -28 -131 -36 -155 -4 -15 1 -18 34 -18 l40 0 21 93
c26 113 26 124 2 137 -27 14 -43 13 -69 -6z"/>
<path d="M1002 929 c-19 -30 -33 -69 -24 -69 10 0 52 63 52 78 0 19 -14 14
-28 -9z"/>
<path d="M900 808 c0 -32 116 -38 151 -8 l24 20 -27 -11 c-16 -7 -37 -8 -55
-3 -35 10 -93 11 -93 2z"/>
</g>
</svg>
