<?xml version="1.0" standalone="no"?>
<!DOCTYPE svg PUBLIC "-//W3C//DTD SVG 20010904//EN"
 "http://www.w3.org/TR/2001/REC-SVG-20010904/DTD/svg10.dtd">
<svg version="1.0" xmlns="http://www.w3.org/2000/svg"
 width="300.000000pt" height="167.000000pt" viewBox="0 0 300.000000 167.000000"
 preserveAspectRatio="xMidYMid meet">
<metadata>
Created by potrace 1.10, written by Peter Selinger 2001-2011
</metadata>
<g transform="translate(0.000000,167.000000) scale(0.100000,-0.100000)"
fill="#000000" stroke="none">
<path d="M2637 1244 c-14 -15 -6 -34 14 -34 14 0 19 5 17 17 -3 18 -20 27 -31
17z"/>
<path d="M2530 1200 c0 -23 25 -27 33 -6 7 16 -1 26 -20 26 -7 0 -13 -9 -13
-20z"/>
<path d="M2425 1190 c-8 -14 3 -30 21 -30 8 0 14 9 14 20 0 21 -24 28 -35 10z"/>
<path d="M2701 1187 c-15 -19 -3 -49 18 -45 9 2 16 13 16 27 0 29 -17 37 -34
18z"/>
<path d="M2590 1166 c-10 -13 -10 -19 0 -31 7 -8 16 -15 20 -15 15 0 20 34 7
47 -12 12 -16 12 -27 -1z"/>
<path d="M2484 1136 c-4 -10 -2 -22 4 -28 8 -8 13 -7 18 6 4 10 2 22 -4 28 -8
8 -13 7 -18 -6z"/>
<path d="M125 1115 c-46 -45 -24 -94 56 -120 54 -18 69 -36 49 -60 -17 -20
-38 -19 -82 5 -37 19 -38 19 -48 1 -14 -27 -14 -27 30 -45 50 -20 93 -20 129
-1 70 36 47 119 -40 140 -48 12 -73 40 -49 56 14 9 37 7 85 -6 14 -4 24 1 33
15 11 18 10 21 -13 30 -15 6 -49 10 -76 10 -40 0 -55 -5 -74 -25z"/>
<path d="M938 1010 l3 -130 25 0 c23 0 24 3 24 64 0 65 14 96 45 96 31 0 45
-31 45 -96 0 -62 1 -64 25 -64 25 0 25 1 25 80 0 67 -3 83 -20 100 -24 24 -77
26 -102 3 -17 -15 -18 -14 -18 30 0 45 -1 47 -27 47 l-28 0 3 -130z"/>
<path d="M1240 1010 l0 -130 100 0 c100 0 100 0 100 25 0 24 -2 25 -70 25
l-70 0 0 30 c0 30 0 30 60 30 53 0 60 2 60 20 0 18 -7 20 -60 20 l-60 0 0 33
0 33 70 -4 c70 -4 70 -4 70 22 l0 26 -100 0 -100 0 0 -130z"/>
<path d="M800 1105 c0 -16 -6 -25 -15 -25 -8 0 -15 -9 -15 -20 0 -11 7 -20 15
-20 12 0 15 -13 15 -60 0 -74 21 -102 76 -98 29 2 34 6 32 23 -2 11 -11 20
-20 20 -29 0 -39 20 -36 66 3 40 6 44 31 47 19 2 27 9 27 23 0 15 -7 19 -30
19 -27 0 -30 2 -24 25 6 23 3 25 -25 25 -26 0 -31 -4 -31 -25z"/>
<path d="M1880 1105 c0 -16 -6 -25 -15 -25 -8 0 -15 -9 -15 -20 0 -11 7 -20
15 -20 12 0 15 -14 15 -64 0 -73 14 -96 58 -96 39 0 60 16 44 32 -7 7 -20 13
-30 13 -14 0 -18 11 -20 58 l-3 57 31 0 c23 0 30 4 30 20 0 16 -7 20 -30 20
-25 0 -30 4 -30 25 0 20 -5 25 -25 25 -20 0 -25 -5 -25 -25z"/>
<path d="M2364 1119 c-10 -17 13 -36 27 -22 12 12 4 33 -11 33 -5 0 -12 -5
-16 -11z"/>
<path d="M2761 1107 c-22 -27 10 -64 45 -50 23 9 14 57 -12 61 -11 2 -26 -3
-33 -11z"/>
<path d="M2637 1094 c-10 -10 -9 -42 2 -48 18 -11 42 6 39 28 -3 21 -28 33
-41 20z"/>
<path d="M363 1060 c-58 -35 -54 -134 8 -165 87 -45 175 20 154 115 -14 64
-97 90 -162 50z m97 -40 c11 -11 20 -29 20 -40 0 -23 -33 -60 -53 -60 -27 0
-50 27 -50 60 0 54 46 77 83 40z"/>
<path d="M557 998 c4 -67 9 -86 25 -100 25 -23 66 -23 90 -1 17 15 18 15 18 0
0 -12 9 -17 30 -17 l30 0 0 100 0 100 -30 0 -30 0 0 -70 c0 -59 -3 -71 -20
-80 -14 -8 -26 -8 -40 0 -17 9 -20 21 -20 80 l0 70 -29 0 -29 0 5 -82z"/>
<path d="M1491 1069 c-37 -15 -10 -34 47 -34 36 0 47 -4 50 -17 3 -15 -4 -18
-40 -18 -78 0 -115 -53 -68 -100 24 -24 57 -26 88 -4 20 14 22 14 22 0 0 -10
9 -16 25 -16 25 0 25 1 25 80 0 67 -3 83 -20 100 -22 22 -86 26 -129 9z m99
-112 c0 -20 -21 -37 -46 -37 -26 0 -38 14 -30 35 7 19 76 21 76 2z"/>
<path d="M1697 1062 c-20 -22 -22 -65 -4 -80 6 -6 28 -14 47 -19 48 -13 54
-43 8 -43 -19 0 -39 5 -44 10 -8 8 -15 6 -24 -5 -20 -24 14 -44 71 -41 56 2
79 19 79 56 0 32 -11 43 -62 59 -53 18 -52 46 1 38 44 -5 67 8 50 30 -18 20
-102 17 -122 -5z"/>
<path d="M2517 1073 c-15 -14 -7 -43 12 -43 24 0 33 13 25 34 -6 16 -25 21
-37 9z"/>
<path d="M2377 1056 c-9 -22 18 -40 33 -22 6 9 9 20 5 26 -9 15 -32 12 -38 -4z"/>
<path d="M2820 1005 c-15 -18 -10 -45 12 -59 14 -8 22 -6 39 10 17 18 19 25
10 43 -13 24 -43 28 -61 6z"/>
<path d="M2344 995 c-4 -9 -2 -21 4 -27 15 -15 44 -1 40 19 -4 23 -36 29 -44
8z"/>
<path d="M2660 995 c-18 -22 -8 -50 19 -50 32 0 49 28 32 49 -17 20 -35 20
-51 1z"/>
<path d="M2504 975 c-4 -9 0 -23 8 -31 20 -20 50 -7 46 20 -4 26 -45 35 -54
11z"/>
<path d="M2224 959 c-10 -17 13 -36 27 -22 12 12 4 33 -11 33 -5 0 -12 -5 -16
-11z"/>
<path d="M2287 963 c-3 -5 -2 -15 3 -22 10 -17 43 -6 38 12 -6 15 -34 22 -41
10z"/>
<path d="M2463 903 c-20 -7 -15 -51 6 -62 28 -15 57 19 41 48 -11 21 -23 24
-47 14z"/>
<path d="M2652 888 c-25 -25 -6 -68 30 -68 9 0 22 9 28 19 13 25 13 27 -6 45
-19 19 -36 20 -52 4z"/>
<path d="M2840 886 c-6 -8 -10 -25 -8 -38 2 -19 9 -23 37 -23 45 0 62 26 37
54 -22 24 -49 27 -66 7z"/>
<path d="M2154 876 c-4 -10 -2 -22 4 -28 8 -8 13 -7 18 6 4 10 2 22 -4 28 -8
8 -13 7 -18 -6z"/>
<path d="M2213 844 c-8 -21 13 -42 28 -27 13 13 5 43 -11 43 -6 0 -13 -7 -17
-16z"/>
<path d="M2377 844 c-10 -11 -9 -42 3 -49 20 -12 51 6 48 28 -3 22 -36 35 -51
21z"/>
<path d="M2283 824 c-3 -8 -1 -20 5 -26 16 -16 42 -2 42 22 0 24 -38 28 -47 4z"/>
<path d="M2598 789 c-32 -18 -19 -79 16 -79 43 0 61 44 30 74 -18 19 -23 19
-46 5z"/>
<path d="M903 778 c3 -7 22 -66 43 -130 38 -118 38 -118 70 -118 31 0 32 1 55
85 13 47 27 85 30 85 4 0 17 -33 29 -72 11 -40 23 -79 25 -86 3 -8 17 -12 37
-10 24 2 33 9 39 28 4 14 21 68 38 121 17 53 31 100 31 103 0 4 -12 6 -26 4
-24 -3 -29 -11 -53 -90 -14 -49 -28 -88 -31 -88 -3 0 -18 41 -33 91 -26 86
-29 90 -54 87 -23 -3 -29 -12 -49 -78 -13 -41 -24 -81 -24 -87 0 -7 -4 -13 -8
-13 -5 0 -21 41 -35 90 -27 88 -28 90 -58 90 -20 0 -29 -4 -26 -12z"/>
<path d="M1524 754 c4 -11 -1 -18 -14 -21 -25 -7 -24 -48 0 -48 12 0 14 -12
12 -54 -4 -67 16 -101 57 -101 48 0 62 9 50 32 -6 11 -17 17 -24 14 -19 -7
-23 1 -26 59 -3 49 -2 50 24 47 23 -2 27 1 27 23 0 21 -5 25 -29 25 -24 0 -28
3 -24 20 5 17 0 20 -27 20 -25 0 -31 -3 -26 -16z"/>
<path d="M2815 750 c-39 -43 28 -95 69 -54 9 8 16 22 16 29 0 19 -28 45 -49
45 -10 0 -26 -9 -36 -20z"/>
<path d="M1946 719 c-22 -17 -26 -18 -26 -5 0 11 -9 16 -27 16 l-28 0 0 -100
0 -100 28 0 c26 0 27 1 27 59 0 64 15 91 51 91 13 0 19 7 19 24 0 35 -13 39
-44 15z"/>
<path d="M2117 726 c-7 -16 1 -26 20 -26 7 0 13 9 13 20 0 23 -25 27 -33 6z"/>
<path d="M1332 723 c-36 -7 -24 -39 13 -35 48 4 75 -6 75 -28 0 -17 -5 -19
-24 -14 -14 3 -41 1 -60 -6 -44 -14 -56 -48 -32 -85 18 -27 61 -34 97 -15 13
7 19 7 19 0 0 -5 11 -10 25 -10 25 0 25 1 25 84 0 76 -2 86 -22 100 -21 15
-66 18 -116 9z m88 -122 c0 -28 -60 -45 -75 -21 -14 22 4 40 40 40 28 0 35 -4
35 -19z"/>
<path d="M1691 716 c-51 -28 -64 -89 -31 -143 22 -36 54 -48 107 -40 46 8 60
21 44 41 -9 11 -18 12 -42 3 -34 -13 -62 -2 -67 27 -3 16 4 17 68 14 l72 -3
-6 35 c-10 67 -84 100 -145 66z m85 -40 c25 -19 14 -28 -36 -30 -41 -2 -51 9
-28 32 16 16 40 15 64 -2z"/>
<path d="M2492 708 c-28 -28 -1 -75 38 -63 14 4 20 15 20 35 0 36 -33 53 -58
28z"/>
<path d="M2186 683 c-4 -9 -2 -21 3 -26 15 -15 41 0 41 23 0 25 -35 28 -44 3z"/>
<path d="M2388 679 c-22 -13 -23 -27 -2 -50 13 -14 21 -16 35 -8 22 11 25 39
7 57 -14 14 -18 14 -40 1z"/>
<path d="M2273 664 c-4 -11 1 -22 12 -31 16 -11 21 -11 33 1 8 8 12 22 9 30
-8 21 -46 21 -54 0z"/>
<path d="M2735 626 c-18 -27 -11 -52 17 -67 45 -24 91 24 63 67 -20 31 -59 32
-80 0z"/>
<path d="M2075 560 c-4 -7 -3 -16 3 -22 14 -14 45 -2 40 15 -6 16 -34 21 -43
7z"/>
<path d="M2624 549 c-17 -19 -17 -23 -3 -47 19 -35 52 -40 73 -10 20 29 20 34
-4 58 -25 25 -42 25 -66 -1z"/>
<path d="M2173 533 c-17 -6 -17 -38 0 -52 10 -8 17 -7 25 1 26 26 7 62 -25 51z"/>
<path d="M2500 505 c-15 -18 -6 -61 16 -69 24 -9 54 12 54 37 0 43 -44 63 -70
32z"/>
<path d="M2261 496 c-15 -17 1 -56 23 -56 23 0 41 30 29 48 -14 23 -37 26 -52
8z"/>
<path d="M2377 494 c-13 -13 -7 -51 9 -65 23 -19 49 1 49 37 0 24 -5 30 -25
32 -14 2 -29 0 -33 -4z"/>
</g>
</svg>
